<svg width="24" height="24" viewBox="0 0 24 24" fill="none" xmlns="http://www.w3.org/2000/svg">
<g clip-path="url(#clip0_5634_18902)">
<path d="M16.4215 8.21071H24.0004C23.3691 6.31634 18.3165 -2.5258 8.21094 1.89492C13.2639 1.89525 15.7902 6.31638 16.4215 8.21071Z" fill="#00D0FF"/>
<path d="M16.4215 15.7898H24.0004C23.3691 17.6842 18.3165 26.5263 8.21094 22.1056C13.2639 22.1052 15.7902 17.6841 16.4215 15.7898Z" fill="#00D0FF"/>
<path d="M1.89474 6.94775H8.8421C8.8421 6.94775 6.94737 8.21091 6.94737 12.0004C6.94737 15.7899 8.8421 17.053 8.8421 17.053H1.89474C1.89474 17.053 0 15.7899 0 12.0004C0 8.21091 1.89474 6.94775 1.89474 6.94775Z" fill="#00D0FF"/>
</g>
<defs>
<clipPath id="clip0_5634_18902">
<rect width="24" height="24" fill="white"/>
</clipPath>
</defs>
</svg>
